<?xml version="1.0" standalone="no"?>
<!DOCTYPE svg PUBLIC "-//W3C//DTD SVG 20010904//EN"
 "http://www.w3.org/TR/2001/REC-SVG-20010904/DTD/svg10.dtd">
<svg version="1.0" xmlns="http://www.w3.org/2000/svg"
 width="1024.000000pt" height="1024.000000pt" viewBox="0 0 1024.000000 1024.000000"
 preserveAspectRatio="xMidYMid meet">
<metadata>
Created by potrace 1.14, written by Peter Selinger 2001-2017
</metadata>
<g transform="translate(0.000000,1024.000000) scale(0.100000,-0.100000)"
fill="#000000" stroke="none">
<path d="M0 5120 l0 -5120 5120 0 5120 0 0 5120 0 5120 -5120 0 -5120 0 0
-5120z m6173 3115 c440 -58 817 -294 1066 -665 106 -159 177 -329 223 -540
l23 -105 0 -930 c0 -864 -1 -937 -19 -1030 -59 -317 -194 -575 -420 -800 -220
-219 -463 -354 -754 -415 -124 -27 -373 -37 -497 -21 -707 93 -1248 654 -1315
1366 -13 138 -13 1643 0 1776 19 201 67 366 155 544 284 570 910 904 1538 820z
m-1903 -2012 l0 -298 -117 0 c-143 -1 -212 -17 -343 -81 -81 -40 -108 -60
-185 -138 -103 -104 -145 -169 -188 -293 -42 -122 -49 -289 -18 -413 66 -269
275 -485 536 -555 96 -26 246 -31 345 -11 54 11 86 14 88 7 12 -36 102 -198
149 -270 75 -113 270 -308 388 -388 201 -136 418 -220 654 -254 l84 -12 -7
-97 c-18 -288 -118 -571 -283 -803 -74 -104 -235 -266 -339 -340 -157 -110
-324 -189 -509 -237 -516 -134 -1066 19 -1445 400 -247 249 -397 575 -430 931
-8 85 -10 389 -8 969 4 832 4 847 26 953 80 380 281 703 578 926 266 199 557
298 892 300 l132 1 0 -297z"/>
<path d="M5845 7695 c-142 -27 -265 -89 -370 -187 -175 -163 -253 -356 -243
-593 11 -221 110 -414 286 -555 124 -98 261 -148 432 -157 356 -17 672 217
761 564 24 94 26 269 4 361 -31 130 -105 262 -202 359 -174 174 -429 253 -668
208z"/>
<path d="M5900 5763 c-261 -34 -477 -186 -591 -418 -63 -130 -84 -229 -76
-375 17 -336 244 -608 577 -691 111 -28 290 -23 390 11 240 81 417 254 496
485 23 66 28 103 32 208 5 158 -10 232 -76 367 -39 82 -59 108 -141 190 -107
107 -200 163 -328 199 -73 20 -219 33 -283 24z"/>
<path d="M3965 4071 c-340 -93 -565 -383 -565 -729 0 -125 22 -217 81 -340 42
-87 62 -115 132 -185 93 -94 184 -152 302 -194 74 -26 91 -28 235 -28 144 0
161 2 235 28 115 40 209 100 296 186 86 87 146 181 186 296 26 74 28 91 28
235 0 144 -2 161 -28 235 -42 119 -99 209 -191 300 -94 92 -177 144 -291 182
-110 36 -314 43 -420 14z"/>
</g>
</svg>
